<svg width="20px" height="20px" viewBox="0 0 20 20" fill="none" xmlns="http://www.w3.org/2000/svg">
<path d="M20.043 0.546875C9.10312 0.546875 0.625 10.2768 0.625 23.4189C0.625 30.2927 2.94609 36.233 6.72422 40.3364C7.37656 41.0504 7.24219 41.4639 7.35313 45.8725C7.36186 46.1813 7.43255 46.4828 7.55902 46.7508C7.6855 47.0187 7.86392 47.2449 8.07872 47.4096C8.29353 47.5744 8.53819 47.6726 8.79137 47.6959C9.04456 47.7191 9.29857 47.6666 9.53125 47.543C13.6648 45.3277 13.718 45.1528 14.4187 45.3848C26.3945 49.396 39.375 40.0692 39.375 23.4189C39.375 10.2768 30.9836 0.546875 20.043 0.546875ZM31.7023 18.148L25.9992 29.1357C25.7839 29.5488 25.5007 29.9034 25.1675 30.1772C24.8342 30.451 24.4581 30.638 24.0627 30.7267C23.6673 30.8153 23.2611 30.8036 22.8696 30.6923C22.4781 30.581 22.1097 30.3724 21.7875 30.0798L17.25 25.9469C17.0472 25.7617 16.8004 25.6617 16.5469 25.6617C16.2933 25.6617 16.0466 25.7617 15.8438 25.9469L9.72109 31.5981C8.90391 32.352 7.83359 31.1607 8.38437 30.1083L14.0875 19.1206C14.3028 18.7073 14.5859 18.3526 14.9191 18.0787C15.2524 17.8049 15.6285 17.6178 16.0239 17.5291C16.4194 17.4405 16.8256 17.4522 17.2171 17.5636C17.6087 17.675 17.9771 17.8837 18.2992 18.1765L22.8352 22.3084C23.038 22.4935 23.2847 22.5936 23.5383 22.5936C23.7918 22.5936 24.0386 22.4935 24.2414 22.3084L30.3672 16.6629C31.1828 15.9042 32.2531 17.0945 31.7023 18.148Z" fill="#B084CC"/>
</svg>
