<svg width="20" height="20" viewBox="0 0 20 20" fill="none" xmlns="http://www.w3.org/2000/svg">
<path d="M5 4.9825C4.3125 4.9825 3.75 5.62843 3.75 6.41791V8.40057L17.2266 21.1039C18.8438 22.6291 21.1641 22.6291 22.7813 21.1039L36.25 8.40057V6.41791C36.25 5.62843 35.6875 4.9825 35 4.9825H5ZM3.75 13.9718V29.3845C3.75 30.1739 4.3125 30.8199 5 30.8199H35C35.6875 30.8199 36.25 30.1739 36.25 29.3845V13.9718L25.1562 24.4323C22.1562 27.2583 17.8359 27.2583 14.8438 24.4323L3.75 13.9718ZM0 6.41791C0 3.25104 2.24219 0.67627 5 0.67627H35C37.7578 0.67627 40 3.25104 40 6.41791V29.3845C40 32.5513 37.7578 35.1261 35 35.1261H5C2.24219 35.1261 0 32.5513 0 29.3845V6.41791Z" fill="#B084CC"/>
</svg>
