<svg width="20" height="20" viewBox="0 0 20 20" fill="none" xmlns="http://www.w3.org/2000/svg">
<path d="M20.0156 10.5808C14.3371 10.5808 9.7567 15.1831 9.7567 20.8888C9.7567 26.5946 14.3371 31.1969 20.0156 31.1969C25.6942 31.1969 30.2746 26.5946 30.2746 20.8888C30.2746 15.1831 25.6942 10.5808 20.0156 10.5808ZM20.0156 27.5904C16.346 27.5904 13.346 24.585 13.346 20.8888C13.346 17.1927 16.3371 14.1873 20.0156 14.1873C23.6942 14.1873 26.6853 17.1927 26.6853 20.8888C26.6853 24.585 23.6853 27.5904 20.0156 27.5904ZM33.0871 10.1592C33.0871 11.4959 32.0156 12.5635 30.6942 12.5635C29.3638 12.5635 28.3013 11.4869 28.3013 10.1592C28.3013 8.8314 29.3728 7.75484 30.6942 7.75484C32.0156 7.75484 33.0871 8.8314 33.0871 10.1592ZM39.8817 12.5993C39.7299 9.37865 38.9978 6.52577 36.6496 4.17529C34.3103 1.82481 31.471 1.08916 28.2656 0.927675C24.9621 0.739278 15.0603 0.739278 11.7567 0.927675C8.56027 1.08019 5.72098 1.81583 3.37277 4.16632C1.02455 6.5168 0.301339 9.36968 0.140625 12.5904C-0.046875 15.9098 -0.046875 25.8589 0.140625 29.1783C0.292411 32.399 1.02455 35.2519 3.37277 37.6024C5.72098 39.9529 8.55134 40.6885 11.7567 40.85C15.0603 41.0384 24.9621 41.0384 28.2656 40.85C31.471 40.6975 34.3103 39.9618 36.6496 37.6024C38.9888 35.2519 39.721 32.399 39.8817 29.1783C40.0692 25.8589 40.0692 15.9187 39.8817 12.5993ZM35.6138 32.7399C34.9174 34.4983 33.5692 35.853 31.8103 36.5617C29.1763 37.6114 22.9263 37.3691 20.0156 37.3691C17.1049 37.3691 10.846 37.6024 8.22098 36.5617C6.47098 35.862 5.12277 34.5073 4.41741 32.7399C3.37277 30.0934 3.61384 23.8135 3.61384 20.8888C3.61384 17.9642 3.3817 11.6753 4.41741 9.03774C5.11384 7.27936 6.46205 5.92469 8.22098 5.21596C10.8549 4.16632 17.1049 4.40854 20.0156 4.40854C22.9263 4.40854 29.1853 4.17529 31.8103 5.21596C33.5603 5.91572 34.9085 7.27039 35.6138 9.03774C36.6585 11.6843 36.4174 17.9642 36.4174 20.8888C36.4174 23.8135 36.6585 30.1024 35.6138 32.7399Z" fill="#B084CC"/>
</svg>
