<svg width="100" height="100" viewBox="0 0 100 100" fill="none" xmlns="http://www.w3.org/2000/svg">
<path d="M53.0907 25.1589C55.1277 23.4826 57.4323 22.6174 60.0381 22.6412C65.27 22.689 69.9154 26.8249 70.5479 31.9471C70.9177 34.9417 70.3402 37.7668 69.0962 40.4843C67.6786 43.5809 65.5664 46.1572 63.1442 48.5112C59.1842 52.3598 54.9386 55.8778 50.6607 59.3596C50.1035 59.8131 50.1044 59.8151 49.5424 59.355C45.6265 56.1485 41.7031 52.9512 38.0353 49.4559C35.9214 47.4415 33.8999 45.353 32.3723 42.8361C30.9104 40.4276 29.8865 37.8632 29.5906 35.0453C28.9017 28.4865 33.291 23.6014 38.7431 22.7811C42.6426 22.1945 45.9013 23.5715 48.4871 26.5396C48.5893 26.657 48.7275 26.7654 48.7208 27.0387C48.21 26.9492 47.7932 26.6868 47.3847 26.439C47.0253 26.221 46.6595 26.0878 46.2413 26.0692C45.728 26.0464 45.297 26.2043 44.8937 26.5303C44.301 27.0094 43.7107 27.4764 43.1724 28.029C42.3819 28.8405 41.3152 28.8343 40.2846 28.6415C38.6187 28.3298 37.1766 27.5075 35.8374 26.505C35.3816 26.1638 34.8834 26.0315 34.3414 25.9912C34.0449 25.9692 33.7885 26.0804 33.6148 26.318C33.2952 26.7552 32.8679 27.0902 32.5199 27.4962C31.649 28.5126 30.9776 29.6289 30.9474 31.0245C30.9431 31.2209 30.9449 31.4244 31.0434 31.5969C31.5335 32.4553 31.9904 33.3373 32.5442 34.153C32.9169 34.7019 33.1696 35.3357 33.6639 35.802C33.7343 35.8684 33.7745 35.9758 33.8533 36.0227C34.7909 36.5795 35.4861 37.4481 36.436 37.9956C37.4009 38.5517 38.4968 38.6881 39.5232 39.0439C40.5533 39.4011 41.591 39.7347 42.5855 40.1852C43.0611 40.4007 43.4758 40.715 43.9128 40.9965C45.4564 41.9909 47.0139 42.98 48.9552 42.9861C49.1263 42.9866 49.3394 43.0269 49.4612 43.132C50.0725 43.6593 50.8 43.6654 51.5377 43.6478C52.4304 43.6264 53.2779 43.4271 54.0611 42.9866C54.647 42.6569 55.1158 42.2137 55.3262 41.5597C55.5995 40.7106 56.2001 40.0785 56.7471 39.4216C57.2761 38.7861 58.4573 38.5633 59.2782 38.9379C59.978 39.2573 60.7299 39.3791 61.4465 39.6282C61.9423 39.8006 62.3317 40.0739 62.5024 40.5595C62.7295 41.2057 62.8683 41.8811 62.7626 42.5722C62.7167 42.872 62.7072 43.1409 63.0116 43.2852C63.3084 43.4259 63.6725 43.4547 63.8671 43.1788C64.2593 42.6228 64.7648 42.2203 65.3155 41.8452C65.5552 41.682 65.6298 41.4116 65.5752 41.1045C65.5241 40.8178 65.5487 40.5162 65.4851 40.2335C65.3514 39.6395 64.9636 39.2325 64.4315 38.9603C63.9649 38.7217 63.7321 38.3142 63.6969 37.8246C63.6573 37.2748 63.6246 36.7073 63.7157 36.1689C63.9275 34.9183 63.9393 33.6667 63.746 32.4286C63.553 31.1927 63.3152 29.9313 62.1438 29.1628C61.5861 28.7969 61.0073 28.458 60.3472 28.3047C59.4809 28.1036 58.8231 27.6048 58.2909 26.9128C57.9643 26.4882 57.5728 26.1652 57.0142 26.092C56.6853 26.049 56.3848 25.913 56.1319 25.7C55.5921 25.2453 55.0238 25.2426 54.4025 25.5197C53.6309 25.864 52.8241 26.1288 52.0921 26.5628C52.0042 26.615 51.9105 26.7078 51.7322 26.634C52.056 26.0272 52.5678 25.611 53.0907 25.1589Z" fill="#B084CC"/>
<path d="M80.1387 63.9215C79.1594 65.6535 78.1579 67.3283 76.9044 68.8364C76.3799 69.4674 75.7689 69.9744 75.0211 70.3507C71.9955 71.8737 69.072 73.5917 66.2834 75.5015C64.2756 76.8764 62.1681 77.84 59.7785 78.204C58.2193 78.4414 56.6711 78.4553 55.16 77.8976C52.8361 77.0398 51.5657 74.7827 51.9594 72.3349C52.3753 69.7481 53.6707 67.588 55.1293 65.4953C56.122 64.071 57.238 62.7684 58.728 61.8292C60.2911 60.844 62.0507 60.4542 63.8311 60.1326C64.7252 59.971 65.634 59.8866 66.524 59.7068C67.7533 59.4583 68.7277 58.7638 69.51 57.8039C70.8564 56.1518 72.1742 54.476 73.7015 52.9812C74.401 52.2966 75.1423 51.6664 75.9617 51.1273C76.8247 50.5596 77.7659 50.2486 78.7954 50.2452C79.133 48.1505 79.1866 46.0764 79.2163 43.9984C79.235 42.6839 79.2589 41.3634 79.6792 40.0924C80.1962 38.5286 81.3261 37.6835 82.8941 37.6544C83.5319 37.6425 83.9826 37.9136 84.3264 38.4185C84.9177 39.2869 85.1544 40.2888 85.3626 41.2906C85.8838 43.7981 86.0734 46.3403 86.0424 48.8973C86.0162 51.0657 85.6033 53.1335 84.6331 55.1134C83.1873 58.0637 81.7874 61.0352 80.1387 63.9215ZM75.5235 58.6995C76.3805 57.0161 77.2879 55.3633 78.4454 53.8612C78.7146 53.5119 79.0233 53.2014 79.3445 52.9004C79.5199 52.736 79.7384 52.5527 79.6319 52.2789C79.536 52.0324 79.2564 52.0344 79.0416 52.0068C78.5497 51.9438 78.0693 52.0288 77.6131 52.226C76.7794 52.5865 76.0834 53.1482 75.4249 53.7574C73.819 55.2428 72.4445 56.9355 71.0851 58.6403C69.9766 60.0305 68.6338 61.063 66.8511 61.4063C65.9428 61.5812 65.0214 61.6869 64.1102 61.8481C62.3412 62.161 60.5918 62.5481 59.1249 63.6755C57.8426 64.6609 56.8975 65.9469 56.0213 67.2848C54.9292 68.9523 53.9576 70.6686 53.6748 72.6957C53.4541 74.2783 54.225 75.6651 55.7074 76.2465C56.9493 76.7335 58.2245 76.6819 59.5048 76.4886C61.6343 76.1672 63.4981 75.2873 65.289 74.0685C68.0975 72.1572 71.0277 70.4206 74.0641 68.8828C74.7243 68.5485 75.27 68.1164 75.7104 67.5438C76.1364 66.9899 76.5555 66.4275 76.9338 65.8405C79.5055 61.8503 81.5618 57.5894 83.526 53.2791C83.9949 52.2501 84.1847 51.1653 84.2335 50.0625C84.3435 47.5737 84.2772 45.088 83.8542 42.6243C83.6919 41.6791 83.4905 40.7441 83.141 39.8438C82.9722 39.4089 82.722 39.33 82.3087 39.4836C81.8758 39.6447 81.6226 39.954 81.4478 40.3584C81.1124 41.1346 81.0141 41.9614 80.9976 42.7887C80.9692 44.2195 80.9799 45.6519 80.8788 47.0797C80.8011 48.1783 80.7869 49.2896 80.4528 50.3541C80.3861 50.5663 80.4857 50.6407 80.6202 50.7487C81.6092 51.5433 81.7342 52.6373 80.9915 53.6742C80.712 54.0645 80.3094 54.3216 80.0127 54.691C78.8436 56.1466 77.987 57.7923 77.1041 59.4227C76.8177 59.9517 76.3573 60.1601 75.909 59.9632C75.4692 59.7701 75.3137 59.3268 75.5235 58.6995Z" fill="#B084CC"/>
<path d="M27.9803 54.5407C28.8773 55.6165 29.7621 56.6579 30.6229 57.7188C31.6378 58.9695 32.9187 59.6736 34.5346 59.8454C35.9226 59.9929 37.2944 60.2707 38.6484 60.6256C40.676 61.1571 42.3932 62.1915 43.7464 63.7942C45.4671 65.8322 46.9409 68.0263 47.832 70.5653C48.2357 71.7155 48.4281 72.911 48.2222 74.1171C47.8335 76.3935 46.113 77.9751 43.7059 78.243C40.2829 78.624 37.1688 77.756 34.352 75.7857C32.3639 74.395 30.2513 73.2048 28.1657 71.9717C27.0877 71.3344 25.989 70.7347 24.8623 70.185C24.1598 69.8423 23.644 69.2701 23.1661 68.6678C21.7037 66.8251 20.5381 64.794 19.4138 62.7373C17.8682 59.9101 16.4648 57.0134 15.1351 54.0787C14.5947 52.886 14.3301 51.6377 14.2536 50.3537C14.0585 47.0784 14.2475 43.8262 15.006 40.6227C15.1709 39.9261 15.3888 39.2442 15.7524 38.6185C16.1358 37.9588 16.6666 37.6001 17.4689 37.6562C18.8113 37.7501 19.7749 38.3784 20.3322 39.601C20.9133 40.8758 20.9733 42.2493 20.9921 43.6132C21.0226 45.8208 21.0513 48.0255 21.4291 50.2411C23.3675 50.2427 24.7532 51.3746 26.0912 52.5876C26.7542 53.1886 27.3735 53.8355 27.9803 54.5407ZM19.399 58.977C19.8356 59.8135 20.2589 60.6571 20.7113 61.4849C21.8666 63.5985 23.0294 65.709 24.5463 67.5952C24.8719 68.0001 25.2084 68.4081 25.6897 68.6418C27.023 69.2893 28.312 70.0176 29.5819 70.7787C31.6324 72.0075 33.6934 73.2158 35.6718 74.5659C37.9914 76.1488 40.5842 76.8315 43.3974 76.5308C45.0837 76.3506 46.2334 75.3461 46.5085 73.8338C46.6506 73.0522 46.5314 72.2744 46.2999 71.5226C45.5282 69.0169 44.0758 66.9062 42.4136 64.9253C41.3247 63.6275 39.9333 62.796 38.3063 62.3377C37.0043 61.9709 35.6774 61.7082 34.3389 61.5708C32.1436 61.3453 30.4523 60.3188 29.106 58.6123C27.8764 57.0537 26.6189 55.5163 25.1858 54.134C24.5047 53.477 23.797 52.8549 22.9613 52.3964C22.3747 52.0745 21.748 51.9262 21.0825 52.0136C20.8844 52.0396 20.6293 52.0622 20.5574 52.3035C20.4879 52.5365 20.6582 52.7081 20.8148 52.8474C21.1809 53.1733 21.5138 53.5265 21.8113 53.9162C22.932 55.3847 23.814 56.997 24.6505 58.6355C24.9433 59.209 24.8134 59.6916 24.3424 59.9303C23.8711 60.1692 23.4164 59.9825 23.1063 59.4151C22.7864 58.8298 22.4896 58.2312 22.1522 57.6563C21.3786 56.3384 20.6071 55.0288 19.478 53.9522C18.5877 53.1033 18.509 51.9224 19.1678 51.1331C19.351 50.9136 19.5969 50.7464 19.8157 50.5538C19.748 50.3357 19.6515 50.1248 19.6194 49.9045C19.4557 48.7784 19.3408 47.6466 19.3077 46.5085C19.2684 45.1589 19.2565 43.8084 19.1998 42.4596C19.1711 41.7782 19.0618 41.1015 18.8159 40.4562C18.618 39.9366 18.2745 39.5835 17.7235 39.4319C17.4319 39.3517 17.2578 39.433 17.1411 39.7037C16.9214 40.2134 16.7568 40.7397 16.6327 41.2798C15.9754 44.1392 15.852 47.0433 15.9674 49.9586C16.0143 51.1423 16.2266 52.304 16.7396 53.4069C17.5973 55.2507 18.447 57.0977 19.399 58.977Z" fill="#B084CC"/>
<ellipse cx="40.7489" cy="33.6022" rx="11.2335" ry="11.0215" fill="#B084CC"/>
<ellipse cx="59.4713" cy="32.7957" rx="11.0132" ry="10.2151" fill="#B084CC"/>
<rect x="39.207" y="34.4086" width="28.6344" height="10.2151" rx="5.10753" fill="#B084CC"/>
<path d="M30.448 98.76C30.3093 98.5787 30.192 98.3813 30.096 98.168C30 97.944 29.8987 97.6773 29.792 97.368C29.7707 97.3147 29.7067 97.1547 29.6 96.888C29.504 96.6213 29.392 96.392 29.264 96.2C28.592 96.296 28.0427 96.344 27.616 96.344C27.3813 96.344 27.12 96.3387 26.832 96.328C26.5547 96.3067 26.3467 96.296 26.208 96.296C25.6747 96.2533 25.248 96.232 24.928 96.232C24.8 96.4027 24.688 96.584 24.592 96.776C24.5067 96.968 24.3947 97.256 24.256 97.64C24.064 98.1947 23.8987 98.5893 23.76 98.824C23.664 98.984 23.4773 99.064 23.2 99.064C22.9653 99.064 22.7467 99.016 22.544 98.92C22.352 98.8133 22.256 98.6693 22.256 98.488C22.3413 98.0827 22.4747 97.656 22.656 97.208C22.848 96.7493 23.12 96.1413 23.472 95.384L24.112 93.816C24.464 92.92 24.784 92.152 25.072 91.512C25.3707 90.872 25.76 90.1147 26.24 89.24C26.304 89.112 26.4107 89.0053 26.56 88.92C26.7093 88.824 26.8747 88.776 27.056 88.776C27.2587 88.776 27.4027 88.792 27.488 88.824C27.584 88.8453 27.6587 88.888 27.712 88.952C27.7653 89.0053 27.8453 89.1227 27.952 89.304C28.3147 89.8693 28.624 90.4507 28.88 91.048C29.1467 91.6453 29.4827 92.472 29.888 93.528L30.224 94.376C30.5227 95.144 30.7787 95.7893 30.992 96.312C31.216 96.824 31.4613 97.2933 31.728 97.72C31.8987 97.9973 31.984 98.1893 31.984 98.296C31.984 98.552 31.904 98.7493 31.744 98.888C31.5947 99.016 31.3973 99.08 31.152 99.08C30.8427 99.08 30.608 98.9733 30.448 98.76ZM28.8 94.888C28.6293 94.5253 28.384 93.896 28.064 93C27.7333 92.04 27.4027 91.2773 27.072 90.712C26.8693 91.224 26.5707 91.8853 26.176 92.696C25.9093 93.1973 25.6053 93.9227 25.264 94.872C25.9467 94.9573 26.6827 95 27.472 95C28.0373 95 28.48 94.9627 28.8 94.888ZM43.1784 98.44C43.0184 98.1413 42.917 97.8107 42.8744 97.448C42.8317 97.0747 42.8104 96.5627 42.8104 95.912C42.8104 95.2933 42.725 94.7547 42.5544 94.296C42.3837 93.8373 42.0317 93.608 41.4984 93.608C41.2957 93.608 41.093 93.672 40.8904 93.8C40.6984 93.9173 40.5544 94.0667 40.4584 94.248C40.309 94.536 40.2077 94.8507 40.1544 95.192C40.101 95.5227 40.0744 95.9067 40.0744 96.344C40.0744 96.6213 40.0904 96.904 40.1224 97.192C40.1224 97.2773 40.1277 97.416 40.1384 97.608C40.1597 97.7893 40.1704 97.9547 40.1704 98.104C40.1704 98.744 39.9464 99.064 39.4984 99.064C38.9117 99.064 38.6024 98.7547 38.5704 98.136C38.5704 97.6987 38.5757 97.464 38.5864 97.432V96.744C38.5864 96.36 38.5704 95.9867 38.5384 95.624C38.5064 95.2613 38.469 94.9893 38.4264 94.808C38.3304 94.456 38.2024 94.184 38.0424 93.992C37.893 93.8 37.653 93.704 37.3224 93.704C36.853 93.704 36.4744 93.9067 36.1864 94.312C35.9837 94.632 35.8504 95.0213 35.7864 95.48C35.7224 96.0667 35.6744 96.5307 35.6424 96.872C35.621 97.2027 35.6104 97.5867 35.6104 98.024C35.6104 98.3333 35.557 98.584 35.4504 98.776C35.3544 98.968 35.1677 99.064 34.8904 99.064C34.6877 99.064 34.4744 99.0107 34.2504 98.904C34.037 98.7867 33.9304 98.632 33.9304 98.44C33.9304 98.2373 33.9517 98.0347 33.9944 97.832C34.0904 97.224 34.1384 96.136 34.1384 94.568C34.1384 94.312 34.0744 94.0667 33.9464 93.832C33.829 93.5867 33.685 93.464 33.5144 93.464C33.4717 93.464 33.3917 93.4853 33.2744 93.528C33.1677 93.5707 33.0877 93.592 33.0344 93.592C32.8957 93.592 32.7677 93.528 32.6504 93.4C32.5437 93.272 32.4904 93.1653 32.4904 93.08C32.4904 92.8133 32.6184 92.5893 32.8744 92.408C33.141 92.216 33.4184 92.12 33.7064 92.12C34.101 92.12 34.437 92.2427 34.7144 92.488C34.9917 92.7333 35.205 93.0747 35.3544 93.512C35.5997 93.0853 35.9304 92.744 36.3464 92.488C36.7624 92.2213 37.2264 92.088 37.7384 92.088C38.0584 92.088 38.3144 92.1307 38.5064 92.216C38.709 92.2907 38.8744 92.4027 39.0024 92.552C39.1304 92.6907 39.2957 92.904 39.4984 93.192C39.765 92.8507 40.1064 92.584 40.5224 92.392C40.949 92.2 41.3864 92.104 41.8344 92.104C42.3677 92.104 42.8477 92.3227 43.2744 92.76C43.701 93.1867 43.989 93.6827 44.1384 94.248C44.213 94.536 44.2504 95.0907 44.2504 95.912L44.3144 96.84C44.3677 97.3947 44.549 97.7307 44.8584 97.848C45.221 97.9547 45.4024 98.0667 45.4024 98.184C45.4024 98.44 45.3384 98.6267 45.2104 98.744C45.1144 98.808 44.981 98.8773 44.8104 98.952C44.6397 99.0267 44.5064 99.064 44.4104 99.064C43.8344 99.064 43.4237 98.856 43.1784 98.44ZM53.8155 98.232C53.8155 98.4667 53.6875 98.664 53.4315 98.824C53.1862 98.984 52.9568 99.064 52.7435 99.064C52.3382 99.064 52.0128 99.016 51.7675 98.92C51.5328 98.8133 51.3142 98.6213 51.1115 98.344C50.8342 98.5893 50.4555 98.776 49.9755 98.904C49.4955 99.0213 49.0528 99.08 48.6475 99.08C47.9862 99.08 47.4422 98.904 47.0155 98.552C46.5888 98.1893 46.3755 97.6613 46.3755 96.968C46.3755 96.6693 46.4555 96.3973 46.6155 96.152C46.7755 95.896 46.9942 95.672 47.2715 95.48C47.5808 95.2773 47.9328 95.1227 48.3275 95.016C48.7222 94.8987 49.1328 94.84 49.5595 94.84C49.7835 94.84 50.0502 94.8827 50.3595 94.968C50.6688 95.0533 50.9088 95.144 51.0795 95.24V94.984C51.0795 94.408 50.9408 94.0133 50.6635 93.8C50.3862 93.576 49.9382 93.464 49.3195 93.464C49.1382 93.464 48.9568 93.5013 48.7755 93.576C48.6048 93.6507 48.4075 93.752 48.1835 93.88C47.8848 94.04 47.6022 94.12 47.3355 94.12C47.2395 94.12 47.1488 94.056 47.0635 93.928C46.9782 93.7893 46.9355 93.6667 46.9355 93.56C46.9355 93.2507 47.0795 92.984 47.3675 92.76C47.6662 92.536 48.0182 92.3707 48.4235 92.264C48.8288 92.1467 49.1915 92.088 49.5115 92.088C49.8315 92.088 50.1995 92.152 50.6155 92.28C51.0315 92.3973 51.3728 92.5627 51.6395 92.776C51.9595 93.0533 52.2048 93.3787 52.3755 93.752C52.5568 94.1147 52.6475 94.5147 52.6475 94.952C52.6475 95.0907 52.6368 95.2987 52.6155 95.576C52.5942 95.8747 52.5835 96.1307 52.5835 96.344C52.5835 96.44 52.5728 96.584 52.5515 96.776C52.5302 97.0107 52.5195 97.1973 52.5195 97.336C52.5195 97.464 52.5675 97.576 52.6635 97.672C52.7595 97.7573 52.8715 97.8 52.9995 97.8L53.4475 97.784C53.5648 97.784 53.6555 97.8267 53.7195 97.912C53.7835 97.9973 53.8155 98.104 53.8155 98.232ZM48.6635 97.816C49.1222 97.816 49.5062 97.768 49.8155 97.672C50.1248 97.576 50.4982 97.4 50.9355 97.144C50.9782 96.9627 51.0048 96.7227 51.0155 96.424C50.4288 96.1467 49.9435 96.008 49.5595 96.008C49.1222 96.008 48.7328 96.088 48.3915 96.248C48.0502 96.408 47.8795 96.6907 47.8795 97.096C47.8795 97.2987 47.9648 97.4693 48.1355 97.608C48.3062 97.7467 48.4822 97.816 48.6635 97.816ZM54.9433 93.384C54.6659 93.192 54.5273 92.9893 54.5273 92.776C54.5273 92.6267 54.5913 92.488 54.7193 92.36C54.8473 92.232 55.0393 92.168 55.2953 92.168C55.5939 92.168 55.8606 92.248 56.0953 92.408C56.3406 92.5573 56.5113 92.776 56.6073 93.064C56.8526 92.776 57.1299 92.5467 57.4393 92.376C57.7593 92.2053 58.0846 92.12 58.4153 92.12C58.8099 92.12 59.1673 92.2267 59.4873 92.44C59.8073 92.6533 59.9673 92.9413 59.9673 93.304C59.9673 93.5067 59.8766 93.7147 59.6953 93.928C59.5246 94.1413 59.3486 94.248 59.1673 94.248C59.0713 94.248 58.9859 94.2267 58.9113 94.184C58.8473 94.1307 58.7673 94.056 58.6713 93.96C58.5646 93.8533 58.4739 93.7787 58.3993 93.736C58.3246 93.6827 58.2393 93.656 58.1432 93.656C57.9726 93.656 57.8126 93.6827 57.6633 93.736C57.5139 93.7893 57.4126 93.8533 57.3593 93.928C57.1886 94.1947 57.0606 94.4347 56.9753 94.648C56.9006 94.8613 56.8633 95.0907 56.8633 95.336C56.8633 95.5173 56.8579 95.6613 56.8473 95.768L56.8313 96.68C56.8313 96.8187 56.8366 96.9733 56.8473 97.144C56.8579 97.3147 56.8686 97.4427 56.8793 97.528C56.9113 97.816 56.9273 98.0933 56.9273 98.36C56.9273 98.5413 56.8579 98.7013 56.7193 98.84C56.5806 98.9787 56.4099 99.048 56.2073 99.048C55.8873 99.048 55.6526 98.9893 55.5033 98.872C55.3539 98.744 55.2793 98.5147 55.2793 98.184L55.2633 97.16C55.2526 96.9573 55.2473 96.6693 55.2473 96.296L55.2633 95.24C55.2846 94.728 55.2953 94.312 55.2953 93.992C55.2953 93.8747 55.2686 93.768 55.2153 93.672C55.1726 93.576 55.0819 93.48 54.9433 93.384ZM60.9425 93.464C60.7932 93.4427 60.6705 93.3787 60.5745 93.272C60.4892 93.1653 60.4465 93.0373 60.4465 92.888C60.4465 92.8133 60.4625 92.7333 60.4945 92.648C60.5372 92.5627 60.5958 92.488 60.6705 92.424C60.8092 92.3067 60.9958 92.1947 61.2305 92.088C61.4758 91.992 61.6518 91.8747 61.7585 91.736C61.8652 91.5973 61.9185 91.336 61.9185 90.952C61.9185 90.792 61.9078 90.6533 61.8865 90.536C61.8758 90.4187 61.8705 90.328 61.8705 90.264C61.8705 90.0293 61.9558 89.8533 62.1265 89.736C62.2972 89.6187 62.4945 89.56 62.7185 89.56C62.9958 89.56 63.1825 89.6293 63.2785 89.768C63.3852 89.9067 63.4385 90.1627 63.4385 90.536C63.4385 90.8987 63.4225 91.2133 63.3905 91.48C63.3585 91.736 63.2892 91.9653 63.1825 92.168C63.3318 92.168 63.5772 92.1573 63.9185 92.136C64.3878 92.1147 64.7132 92.104 64.8945 92.104C65.0758 92.104 65.2358 92.152 65.3745 92.248C65.5132 92.3333 65.5825 92.456 65.5825 92.616C65.5825 92.84 65.5345 93.0053 65.4385 93.112C65.3425 93.2187 65.2038 93.288 65.0225 93.32C64.5852 93.4373 63.9665 93.5067 63.1665 93.528C63.1452 93.944 63.1345 94.3973 63.1345 94.888C63.1345 95.7093 63.1825 96.3387 63.2785 96.776C63.3425 97.1173 63.4492 97.368 63.5985 97.528C63.7585 97.6773 63.9932 97.752 64.3025 97.752C64.4625 97.752 64.5905 97.7307 64.6865 97.688C64.7932 97.6453 64.8518 97.6187 64.8625 97.608C64.9905 97.5333 65.1078 97.496 65.2145 97.496C65.3638 97.496 65.4705 97.544 65.5345 97.64C65.6092 97.736 65.6465 97.864 65.6465 98.024C65.6465 98.3227 65.4865 98.5733 65.1665 98.776C64.8465 98.968 64.4358 99.064 63.9345 99.064C63.3692 99.064 62.8892 98.8987 62.4945 98.568C62.1105 98.2267 61.8812 97.7787 61.8065 97.224C61.6998 96.7227 61.6465 96.0187 61.6465 95.112C61.6465 94.7173 61.6678 94.1893 61.7105 93.528L60.9425 93.464ZM66.7661 95.336C66.7661 94.6853 66.9101 94.1467 67.1981 93.72C67.4861 93.2827 67.8861 92.872 68.3981 92.488C68.5475 92.3813 68.7981 92.2907 69.1501 92.216C69.5021 92.1307 69.8115 92.088 70.0781 92.088C70.3981 92.088 70.7341 92.1573 71.0861 92.296C71.4488 92.424 71.7421 92.5733 71.9661 92.744C72.3608 93.032 72.6328 93.368 72.7821 93.752C72.9315 94.1253 73.0061 94.5733 73.0061 95.096C73.0061 95.32 72.8781 95.5387 72.6221 95.752C72.3768 95.9547 72.1101 96.056 71.8221 96.056L71.2141 96.04C70.9048 96.04 70.4621 96.0507 69.8861 96.072L69.5501 96.088C69.3155 96.1093 69.1395 96.12 69.0221 96.12C68.8515 96.12 68.6168 96.0987 68.3181 96.056C68.3608 96.5573 68.5475 96.952 68.8781 97.24C69.2088 97.5173 69.5661 97.656 69.9501 97.656C70.6221 97.656 71.0915 97.5227 71.3581 97.256C71.5821 97.096 71.7315 96.9947 71.8061 96.952C71.8808 96.9093 71.9981 96.888 72.1581 96.888C72.3288 96.888 72.4781 96.968 72.6061 97.128C72.7341 97.288 72.7981 97.448 72.7981 97.608C72.7981 97.7893 72.6861 97.976 72.4621 98.168C72.2488 98.3493 71.9555 98.5413 71.5821 98.744C71.3795 98.8293 71.1021 98.904 70.7501 98.968C70.3981 99.032 70.1048 99.064 69.8701 99.064C69.4968 99.064 69.0808 98.9573 68.6221 98.744C68.1635 98.52 67.8221 98.2747 67.5981 98.008C67.3741 97.7413 67.1768 97.3627 67.0061 96.872C66.8461 96.3813 66.7661 95.8693 66.7661 95.336ZM69.9501 94.904C70.7075 94.904 71.2621 94.8773 71.6141 94.824C71.5928 94.5147 71.4968 94.264 71.3261 94.072C71.1555 93.8693 70.9208 93.6987 70.6221 93.56C70.5261 93.5173 70.4408 93.4853 70.3661 93.464C70.2915 93.4427 70.2061 93.432 70.1101 93.432C69.6195 93.432 69.2035 93.5653 68.8621 93.832C68.5315 94.0987 68.3341 94.44 68.2701 94.856C68.8035 94.888 69.3635 94.904 69.9501 94.904Z" fill="#533747"/>
</svg>
